<?xml version="1.0" standalone="no"?>
<!DOCTYPE svg PUBLIC "-//W3C//DTD SVG 20010904//EN"
 "http://www.w3.org/TR/2001/REC-SVG-20010904/DTD/svg10.dtd">
<svg version="1.0" xmlns="http://www.w3.org/2000/svg"
 width="950.000000pt" height="840.000000pt" viewBox="0 0 950.000000 840.000000"
 preserveAspectRatio="xMidYMid meet">
<metadata>
Created by potrace 1.16, written by Peter Selinger 2001-2019
</metadata>
<g transform="translate(0.000000,840.000000) scale(0.100000,-0.100000)"
fill="#000000" stroke="none">
<path d="M5410 7414 c-11 -26 -20 -50 -20 -54 0 -9 170 -19 354 -22 169 -2
124 -6 -164 -16 l-214 -7 -59 -128 c-33 -70 -57 -131 -53 -134 3 -4 178 -12
389 -18 l382 -11 -315 -8 c-173 -5 -354 -11 -403 -15 l-87 -6 -55 -119 c-31
-66 -52 -123 -48 -126 5 -4 224 -13 488 -20 264 -6 481 -13 482 -14 2 -2 -223
-8 -500 -15 -276 -7 -505 -16 -509 -20 -8 -8 -109 -233 -106 -236 2 -1 212 -8
468 -15 743 -20 765 -23 220 -38 -261 -7 -532 -15 -601 -19 l-127 -6 -16 -34
c-9 -18 -16 -38 -16 -43 0 -7 407 -9 1154 -8 1154 3 1155 3 1183 24 49 37 73
82 73 139 0 45 -25 110 -189 495 -104 243 -200 454 -213 467 -49 54 -33 53
-782 53 l-695 0 -21 -46z"/>
<path d="M4954 4049 c-37 -10 -104 -80 -104 -108 0 -24 36 -26 865 -47 347 -8
641 -18 655 -22 14 -3 -319 -16 -739 -28 -420 -13 -765 -25 -768 -27 -2 -3 16
-49 40 -103 l43 -99 115 -6 c63 -4 416 -15 786 -25 370 -10 670 -20 668 -22
-2 -3 -342 -14 -754 -26 -413 -12 -753 -25 -757 -28 -4 -4 13 -52 37 -106 l44
-99 145 -6 c80 -3 434 -14 787 -24 353 -9 641 -18 640 -20 -2 -1 -345 -12
-762 -24 -418 -12 -761 -23 -762 -24 -2 -1 18 -49 44 -107 l47 -105 150 -6
c83 -4 439 -14 791 -24 352 -10 618 -19 590 -20 -27 -2 -372 -12 -765 -23
-393 -12 -716 -23 -719 -26 -10 -10 65 -75 99 -84 21 -6 292 -10 693 -10 718
0 688 2 739 -58 37 -45 540 -1268 540 -1313 -1 -66 -37 -115 -105 -144 -32
-13 -147 -15 -913 -15 -697 0 -875 -3 -871 -12 3 -7 15 -36 27 -64 l21 -51
172 -6 c95 -3 619 -18 1165 -34 546 -15 989 -29 983 -31 -6 -2 -512 -18 -1125
-36 -613 -17 -1118 -34 -1121 -38 -5 -5 50 -143 64 -160 3 -3 529 -21 1168
-39 639 -19 1161 -34 1160 -35 -1 -1 -510 -17 -1132 -34 -621 -18 -1131 -34
-1133 -35 -1 -1 15 -40 37 -87 l39 -85 178 -6 c99 -3 625 -18 1169 -34 l990
-28 -1134 -33 c-624 -18 -1136 -34 -1138 -36 -3 -2 12 -43 33 -90 l37 -86 53
0 c72 0 2122 -59 2159 -62 17 -2 -424 -16 -980 -31 -555 -15 -1047 -30 -1091
-33 l-82 -6 17 -39 16 -39 1691 0 1691 0 34 23 c50 33 82 100 75 157 -9 70
-1642 3797 -1679 3832 -16 15 -45 32 -65 38 -47 13 -2753 12 -2798 -1z"/>
</g>
</svg>
